<svg width="251.57187499999998px" height="139.39999999999998px" xmlns="http://www.w3.org/2000/svg" viewBox="124.21406250000001 5.300000000000011 251.57187499999998 139.39999999999998" style="background: rgba(0, 0, 0, 0);" preserveAspectRatio="xMidYMid"><defs><linearGradient id="editing-outline-gradient" x1="-0.44551857559931685" x2="1.445518575599317" y1="0.17443184554284336" y2="0.8255681544571567"><stop offset="0" stop-color="#ee4208"></stop><stop offset="1" stop-color="#4139ff"></stop></linearGradient><filter id="editing-outline" x="-100%" y="-100%" width="300%" height="300%"><feMorphology in="SourceGraphic" operator="dilate" radius="2" result="outline"></feMorphology><feComposite operator="out" in="outline" in2="SourceAlpha"></feComposite></filter></defs><g filter="url(#editing-outline)"><g transform="translate(164.4900140762329, 107.64000129699707)"><path d="M17.61-27.40L17.61-27.40L17.61-27.40Q15.03-27.40 13.16-26.25L13.16-26.25L13.16-26.25Q11.29-25.09 10.40-23.26L10.40-23.26L10.40-23.26Q8.77-19.79 8.77-15.84L8.77-15.84L8.77-15.84Q8.77-3.60 17.27-3.60L17.27-3.60L17.27-3.60Q19.86-3.60 21.69-4.76L21.69-4.76L21.69-4.76Q23.53-5.92 24.48-7.75L24.48-7.75L24.48-7.75Q26.11-11.15 26.11-15.16L26.11-15.16L26.11-15.16Q26.11-27.40 17.61-27.40ZM17.61-31.82L17.61-31.82L17.61-31.82Q25.16-31.82 28.63-27.13L28.63-27.13L28.63-27.13Q32.10-22.44 32.10-14.89L32.10-14.89L32.10-14.89Q32.10-9.45 29.24-4.83L29.24-4.83L29.24-4.83Q27.68-2.31 24.55-0.75L24.55-0.75L24.55-0.75Q21.42 0.82 17.07 0.82L17.07 0.82L17.07 0.82Q9.59 0.82 6.19-3.67L6.19-3.67L6.19-3.67Q2.79-8.16 2.79-15.71L2.79-15.71L2.79-15.71Q2.79-20.13 4.18-23.19L4.18-23.19L4.18-23.19Q5.58-26.25 7.14-27.91L7.14-27.91L7.14-27.91Q8.70-29.58 11.42-30.70L11.42-30.70L11.42-30.70Q14.14-31.82 17.61-31.82ZM56.78-22.10L50.05 0L43.66 0L35.22-31.01L41.07-31.01L46.72-6.19L46.99-6.19L54.26-31.01L59.77-31.01L67.12-6.19L67.39-6.19L73.03-31.01L78.88-31.01L70.45 0L64.06 0L57.12-22.10L56.78-22.10ZM110.77-23.46L110.77-23.46L110.77 0L104.99 0L104.99-23.19L104.99-23.19Q104.99-24.96 103.60-25.91L103.60-25.91L103.60-25.91Q102.20-26.86 99.89-26.86L99.89-26.86L99.89-26.86Q95.06-26.86 89.90-23.39L89.90-23.39L89.90 0L84.12 0L84.12-31.01L87.79-31.01L89.49-27.47L89.49-27.47Q94.72-31.82 100.84-31.82L100.84-31.82L100.84-31.82Q105.40-31.82 108.09-29.51L108.09-29.51L108.09-29.51Q110.77-27.20 110.77-23.46ZM120.02 0L120.02-48.82L125.60-48.82L125.60 0L120.02 0ZM146.00 5.51L146.00 5.51Q143.75 12.04 141.88 14.25L141.88 14.25L141.88 14.25Q140.01 16.46 136.34 16.46L136.34 16.46L136.34 16.46Q132.67 16.46 128.25 14.42L128.25 14.42L130.36 10.00L130.36 10.00Q133.28 11.56 135.39 11.56L135.39 11.56L135.39 11.56Q137.22 11.56 137.84 10.95L137.84 10.95L138.72 10.06L138.72 10.06Q139.60 9.18 140.28 7.00L140.28 7.00L140.28 7.00Q140.96 4.83 141.37 3.64L141.37 3.64L141.37 3.64Q141.78 2.45 141.98 1.77L141.98 1.77L130.63-31.01L136.48-31.01L144.50-6.19L144.77-6.19L152.80-31.01L158.64-31.01L146.00 5.51ZM167.18-0.44L167.18-0.44L167.18-0.44Q166.12 0.61 164.63 0.61L164.63 0.61L164.63 0.61Q163.13 0.61 162.11-0.44L162.11-0.44L162.11-0.44Q161.09-1.50 161.09-3.06L161.09-3.06L161.09-3.06Q161.09-4.62 162.11-5.64L162.11-5.64L162.11-5.64Q163.13-6.66 164.63-6.66L164.63-6.66L164.63-6.66Q166.12-6.66 167.18-5.64L167.18-5.64L167.18-5.64Q168.23-4.62 168.23-3.06L168.23-3.06L168.23-3.06Q168.23-1.50 167.18-0.44Z" fill="url(#editing-outline-gradient)"></path></g></g><style>text {
  font-size: 64px;
  font-family: Arial Black;
  dominant-baseline: central;
  text-anchor: middle;
}</style></svg>